<?xml version="1.0" standalone="no"?>
<!DOCTYPE svg PUBLIC "-//W3C//DTD SVG 20010904//EN"
 "http://www.w3.org/TR/2001/REC-SVG-20010904/DTD/svg10.dtd">
<svg version="1.0" xmlns="http://www.w3.org/2000/svg"
 width="512.000000pt" height="512.000000pt" viewBox="0 0 512.000000 512.000000"
 preserveAspectRatio="xMidYMid meet">
<metadata>
Created by potrace 1.14, written by Peter Selinger 2001-2017
</metadata>
<g transform="translate(0.000000,512.000000) scale(0.100000,-0.100000)"
fill="#000000" stroke="none">
<path d="M1279 4342 c-686 -263 -1254 -483 -1263 -491 -20 -16 -22 -94 -3
-109 7 -6 242 -99 522 -206 281 -107 518 -197 528 -201 16 -7 17 -42 17 -551
0 -382 3 -550 11 -568 14 -30 60 -51 94 -42 45 11 50 36 55 275 l5 225 80 17
c44 10 81 16 83 14 2 -1 -8 -30 -22 -64 -69 -170 -86 -282 -86 -562 0 -227 0
-227 -22 -233 -37 -10 -38 -8 -38 49 0 97 -43 143 -109 115 -41 -16 -51 -48
-51 -159 0 -91 -2 -99 -25 -121 -64 -60 -106 -177 -106 -295 1 -145 56 -271
170 -385 96 -96 148 -123 258 -130 l82 -5 50 -78 c107 -164 291 -327 472 -417
186 -94 349 -133 554 -133 321 0 594 103 827 310 88 78 181 186 229 267 l34
56 67 0 c140 0 261 82 361 243 97 159 106 359 23 502 -14 23 -32 47 -40 55
-14 11 -16 100 -16 810 0 751 1 798 18 805 47 19 275 105 278 105 2 0 4 -243
4 -539 l0 -539 -53 -30 c-174 -98 -166 -351 14 -443 125 -63 283 -6 338 122
30 68 30 151 0 213 -23 50 -89 113 -126 122 l-23 6 2 576 3 575 300 114 c187
71 307 121 318 134 23 29 21 63 -5 92 -26 28 -673 279 -721 280 -15 0 -38 -10
-51 -22 l-25 -23 -70 27 c-64 25 -71 31 -71 55 0 15 -8 37 -17 49 -20 22
-1552 612 -1588 610 -11 -1 -581 -215 -1266 -477z m1606 -1522 c293 -19 568
-57 848 -117 l127 -28 0 -421 0 -421 -37 6 -38 6 -3 265 c-2 255 -3 265 -24
287 -29 31 -72 30 -103 -2 -21 -20 -25 -34 -25 -79 0 -55 0 -55 -27 -51 -16 2
-59 7 -98 10 -310 26 -765 129 -1040 236 -140 55 -307 140 -432 221 l-98 63
75 8 c262 27 615 34 875 17z m-1097 -104 c396 -318 1033 -535 1770 -601 l72
-7 0 -332 c0 -362 -9 -456 -56 -595 -237 -692 -1065 -962 -1662 -541 -251 177
-417 460 -451 772 -14 127 -14 777 0 893 15 120 50 240 104 352 43 88 47 92
83 98 20 4 42 8 47 10 21 7 28 4 93 -49z m2676 -537 c35 -42 35 -89 -2 -130
-48 -54 -130 -39 -158 28 -12 27 -13 42 -4 69 15 44 45 64 96 64 35 0 47 -5
68 -31z m-3164 -564 l0 -75 -45 7 c-56 7 -90 -9 -104 -50 -16 -44 4 -78 59
-98 33 -12 52 -28 73 -60 26 -41 101 -259 92 -268 -3 -2 -25 4 -50 14 -65 24
-136 100 -182 192 -35 71 -38 83 -38 162 0 69 5 94 22 126 26 50 67 89 113
109 58 25 60 23 60 -59z m2545 56 c120 -56 167 -203 112 -354 -41 -114 -127
-209 -213 -237 -20 -7 -37 -10 -40 -7 -3 2 2 22 10 43 8 22 24 71 35 109 29
101 69 160 117 171 72 18 93 85 42 136 -17 17 -29 20 -74 15 l-54 -6 0 75 c0
83 2 84 65 55z"/>
<path d="M2033 2170 c-54 -11 -80 -25 -120 -63 -40 -38 -45 -85 -11 -117 29
-26 64 -25 113 5 52 32 100 32 147 0 49 -33 91 -33 117 1 12 15 21 37 21 50 0
75 -154 147 -267 124z"/>
<path d="M2930 2166 c-126 -34 -184 -113 -125 -171 31 -32 66 -32 113 0 23 16
51 25 75 25 24 0 51 -9 75 -25 58 -39 106 -32 127 18 17 42 3 79 -43 111 -69
47 -149 62 -222 42z"/>
<path d="M2049 1807 c-27 -21 -39 -54 -39 -111 0 -69 29 -109 79 -109 55 0 76
31 76 114 0 65 -2 73 -28 95 -31 26 -63 30 -88 11z"/>
<path d="M2946 1799 c-24 -19 -26 -27 -26 -90 0 -39 5 -79 11 -90 15 -29 57
-42 90 -29 35 15 49 48 49 121 0 50 -4 64 -25 84 -30 30 -64 32 -99 4z"/>
<path d="M2378 1516 c-41 -31 -42 -91 -1 -128 68 -62 186 -75 273 -30 91 46
112 101 58 152 -29 26 -54 25 -103 -5 -22 -13 -51 -24 -65 -24 -14 0 -43 11
-65 24 -45 28 -72 31 -97 11z"/>
<path d="M2095 1229 c-49 -27 -57 -78 -30 -182 69 -265 335 -428 590 -361 128
33 245 119 309 228 60 103 84 252 47 297 l-19 24 -439 2 c-306 2 -444 -1 -458
-8z m770 -171 c-14 -46 -56 -107 -103 -149 -177 -159 -455 -85 -541 144 l-11
27 331 0 330 0 -6 -22z"/>
</g>
</svg>
